<?xml version="1.0" encoding="UTF-8" standalone="no"?>
<svg
   xmlns:dc="http://purl.org/dc/elements/1.1/"
   xmlns:cc="http://creativecommons.org/ns#"
   xmlns:rdf="http://www.w3.org/1999/02/22-rdf-syntax-ns#"
   xmlns:svg="http://www.w3.org/2000/svg"
   xmlns="http://www.w3.org/2000/svg"
   viewBox="0 0 482.5625 127.625"
   height="127.625"
   width="482.5625"
   xml:space="preserve"
   version="1.1"
   id="svg2"><metadata
     id="metadata8"><rdf:RDF><cc:Work
         rdf:about=""><dc:format>image/svg+xml</dc:format><dc:type
           rdf:resource="http://purl.org/dc/dcmitype/StillImage" /><dc:title></dc:title></cc:Work></rdf:RDF></metadata><defs
     id="defs6" /><g
     transform="matrix(1.25,0,0,-1.25,0,127.625)"
     id="g10"><g
       transform="scale(0.1,0.1)"
       id="g12"><path
         id="path14"
         style="fill:#232e4a;fill-opacity:1;fill-rule:nonzero;stroke:none"
         d="M 218.406,895.094 C 218.406,832.77 169.512,782.242 109.199,782.242 48.8984,782.242 0,832.77 0,895.094 c 0,62.312 48.8984,112.856 109.199,112.856 60.313,0 109.207,-50.544 109.207,-112.856" /><path
         id="path16"
         style="fill:#232e4a;fill-opacity:1;fill-rule:nonzero;stroke:none"
         d="M 218.406,510.512 C 218.406,448.188 169.512,397.66 109.199,397.66 48.8984,397.66 0,448.188 0,510.512 c 0,62.324 48.8984,112.851 109.199,112.851 60.313,0 109.207,-50.527 109.207,-112.851" /><path
         id="path18"
         style="fill:#232e4a;fill-opacity:1;fill-rule:nonzero;stroke:none"
         d="M 218.406,125.934 C 218.406,63.6172 169.512,13.0781 109.199,13.0781 48.8984,13.0781 0,63.6172 0,125.934 c 0,62.312 48.8984,112.851 109.199,112.851 60.313,0 109.207,-50.539 109.207,-112.851" /><path
         id="path20"
         style="fill:#232e4a;fill-opacity:1;fill-rule:nonzero;stroke:none"
         d="m 599.473,510.512 c 0,-62.324 -48.899,-112.852 -109.207,-112.852 -60.305,0 -109.203,50.528 -109.203,112.852 0,62.324 48.898,112.851 109.203,112.851 60.308,0 109.207,-50.527 109.207,-112.851" /><path
         id="path22"
         style="fill:#232e4a;fill-opacity:1;fill-rule:nonzero;stroke:none"
         d="m 599.473,895.094 c 0,-62.324 -48.899,-112.852 -109.207,-112.852 -60.305,0 -109.203,50.528 -109.203,112.852 0,62.312 48.898,112.856 109.203,112.856 60.308,0 109.207,-50.544 109.207,-112.856" /><path
         id="path24"
         style="fill:#232e4a;fill-opacity:1;fill-rule:nonzero;stroke:none"
         d="m 980.535,510.512 c 0,-62.324 -48.894,-112.852 -109.207,-112.852 -60.305,0 -109.199,50.528 -109.199,112.852 0,62.324 48.894,112.851 109.199,112.851 60.313,0 109.207,-50.527 109.207,-112.851" /><path
         id="path26"
         style="fill:#232e4a;fill-opacity:1;fill-rule:nonzero;stroke:none"
         d="m 980.535,895.094 c 0,-62.324 -48.894,-112.852 -109.207,-112.852 -60.305,0 -109.199,50.528 -109.199,112.852 0,62.312 48.894,112.856 109.199,112.856 60.313,0 109.207,-50.544 109.207,-112.856" /><path
         id="path28"
         style="fill:#232e4a;fill-opacity:1;fill-rule:nonzero;stroke:none"
         d="m 980.535,125.934 c 0,-62.3168 -48.894,-112.8559 -109.207,-112.8559 -60.305,0 -109.199,50.5391 -109.199,112.8559 0,62.312 48.894,112.851 109.199,112.851 60.313,0 109.207,-50.539 109.207,-112.851" /><path
         id="path30"
         style="fill:#232e4a;fill-opacity:1;fill-rule:nonzero;stroke:none"
         d="m 599.473,125.934 c 0,-62.3168 -48.899,-112.8559 -109.207,-112.8559 -60.305,0 -109.203,50.5391 -109.203,112.8559 0,62.312 48.898,112.851 109.203,112.851 60.308,0 109.207,-50.539 109.207,-112.851" /><path
         id="path32"
         style="fill:#232e4a;fill-opacity:1;fill-rule:nonzero;stroke:none"
         d="m 1716.12,865.484 -279.15,0 0,-318.195 279.15,0 c 95.79,0 162.84,50.914 162.84,158.391 0,103.234 -65.68,159.804 -162.84,159.804 z m 97.16,-445.468 195.68,-404.4574 -165.57,0 -190.21,391.7224 -216.21,0 0,-391.7224 -140.94,0 0,989.9314 420.09,0 c 166.95,0 307.89,-91.927 307.89,-295.568 0,-158.391 -80.73,-255.961 -210.73,-289.906" /><path
         id="path34"
         style="fill:#232e4a;fill-opacity:1;fill-rule:nonzero;stroke:none"
         d="m 2605.63,872.555 c -166.95,0 -258.63,-140.004 -258.63,-362.032 0,-222.031 91.68,-362.031 258.63,-362.031 168.32,0 260,140 260,362.031 0,222.028 -91.68,362.032 -260,362.032 z M 2605.63,0 c -247.68,0 -405.05,210.719 -405.05,510.523 0,299.805 157.37,510.517 405.05,510.517 249.05,0 406.41,-210.712 406.41,-510.517 C 3012.04,210.719 2854.68,0 2605.63,0" /><path
         id="path36"
         style="fill:#232e4a;fill-opacity:1;fill-rule:nonzero;stroke:none"
         d="m 3506.08,0 c -139.59,0 -260,62.2227 -340.74,159.801 l 102.64,103.242 c 64.31,-72.129 158.73,-117.383 249.04,-117.383 134.1,0 198.42,48.086 198.42,144.246 0,76.367 -56.09,114.551 -216.21,164.055 -202.52,62.215 -299.67,114.539 -299.67,291.312 0,171.118 139.57,275.767 316.09,275.767 130,0 228.52,-49.497 313.36,-134.345 L 3727.76,780.629 c -60.21,63.641 -128.63,94.754 -223.04,94.754 -112.23,0 -160.12,-56.57 -160.12,-123.035 0,-69.297 43.79,-103.239 209.37,-154.145 C 3742.8,538.805 3860.5,476.582 3860.5,299.809 3860.5,121.617 3751.03,0 3506.08,0" /></g></g></svg>